<svg width="212" height="36" viewBox="0 0 212 36" fill="none" xmlns="http://www.w3.org/2000/svg">
<path d="M26.4902 34.0055C25.6952 34.0055 24.6752 33.7505 23.4002 33.0005L18.9152 30.3455C18.4502 30.0755 17.5502 30.0755 17.1002 30.3455L12.6002 33.0005C9.94518 34.5755 8.38518 33.9455 7.68018 33.4355C6.99018 32.9255 5.91018 31.6205 6.61518 28.6205L7.68018 24.0155C7.80018 23.5355 7.56018 22.7105 7.20018 22.3505L3.48018 18.6305C1.62018 16.7705 1.77018 15.1805 2.02518 14.4005C2.28018 13.6205 3.09018 12.2405 5.67018 11.8055L10.4552 11.0105C10.9052 10.9355 11.5502 10.4555 11.7452 10.0505L14.4002 4.75547C15.6002 2.34047 17.1752 1.98047 18.0002 1.98047C18.8252 1.98047 20.4002 2.34047 21.6002 4.75547L24.2402 10.0355C24.4502 10.4405 25.0952 10.9205 25.5452 10.9955L30.3302 11.7905C32.9252 12.2255 33.7352 13.6055 33.9752 14.3855C34.2152 15.1655 34.3652 16.7555 32.5202 18.6155L28.8002 22.3505C28.4402 22.7105 28.2152 23.5205 28.3202 24.0155L29.3852 28.6205C30.0752 31.6205 29.0102 32.9255 28.3202 33.4355C27.9452 33.7055 27.3452 34.0055 26.4902 34.0055Z" fill="white"/>
<path d="M26.4902 34.0055C25.6952 34.0055 24.6752 33.7505 23.4002 33.0005L18.9152 30.3455C18.4502 30.0755 17.5502 30.0755 17.1002 30.3455L12.6002 33.0005C9.94518 34.5755 8.38518 33.9455 7.68018 33.4355C6.99018 32.9255 5.91018 31.6205 6.61518 28.6205L7.68018 24.0155C7.80018 23.5355 7.56018 22.7105 7.20018 22.3505L3.48018 18.6305C1.62018 16.7705 1.77018 15.1805 2.02518 14.4005C2.28018 13.6205 3.09018 12.2405 5.67018 11.8055L10.4552 11.0105C10.9052 10.9355 11.5502 10.4555 11.7452 10.0505L14.4002 4.75547C15.6002 2.34047 17.1752 1.98047 18.0002 1.98047C18.8252 1.98047 20.4002 2.34047 21.6002 4.75547L24.2402 10.0355C24.4502 10.4405 25.0952 10.9205 25.5452 10.9955L30.3302 11.7905C32.9252 12.2255 33.7352 13.6055 33.9752 14.3855C34.2152 15.1655 34.3652 16.7555 32.5202 18.6155L28.8002 22.3505C28.4402 22.7105 28.2152 23.5205 28.3202 24.0155L29.3852 28.6205C30.0752 31.6205 29.0102 32.9255 28.3202 33.4355C27.9452 33.7055 27.3452 34.0055 26.4902 34.0055Z" fill="#218354"/>
<path d="M70.4902 34.0055C69.6952 34.0055 68.6752 33.7505 67.4002 33.0005L62.9152 30.3455C62.4502 30.0755 61.5502 30.0755 61.1002 30.3455L56.6002 33.0005C53.9452 34.5755 52.3852 33.9455 51.6802 33.4355C50.9902 32.9255 49.9102 31.6205 50.6152 28.6205L51.6802 24.0155C51.8002 23.5355 51.5602 22.7105 51.2002 22.3505L47.4802 18.6305C45.6202 16.7705 45.7702 15.1805 46.0252 14.4005C46.2802 13.6205 47.0902 12.2405 49.6702 11.8055L54.4552 11.0105C54.9052 10.9355 55.5502 10.4555 55.7452 10.0505L58.4002 4.75547C59.6002 2.34047 61.1752 1.98047 62.0002 1.98047C62.8252 1.98047 64.4002 2.34047 65.6002 4.75547L68.2402 10.0355C68.4502 10.4405 69.0952 10.9205 69.5452 10.9955L74.3302 11.7905C76.9252 12.2255 77.7352 13.6055 77.9752 14.3855C78.2152 15.1655 78.3652 16.7555 76.5202 18.6155L72.8002 22.3505C72.4402 22.7105 72.2152 23.5205 72.3202 24.0155L73.3852 28.6205C74.0752 31.6205 73.0102 32.9255 72.3202 33.4355C71.9452 33.7055 71.3452 34.0055 70.4902 34.0055Z" fill="white"/>
<path d="M70.4902 34.0055C69.6952 34.0055 68.6752 33.7505 67.4002 33.0005L62.9152 30.3455C62.4502 30.0755 61.5502 30.0755 61.1002 30.3455L56.6002 33.0005C53.9452 34.5755 52.3852 33.9455 51.6802 33.4355C50.9902 32.9255 49.9102 31.6205 50.6152 28.6205L51.6802 24.0155C51.8002 23.5355 51.5602 22.7105 51.2002 22.3505L47.4802 18.6305C45.6202 16.7705 45.7702 15.1805 46.0252 14.4005C46.2802 13.6205 47.0902 12.2405 49.6702 11.8055L54.4552 11.0105C54.9052 10.9355 55.5502 10.4555 55.7452 10.0505L58.4002 4.75547C59.6002 2.34047 61.1752 1.98047 62.0002 1.98047C62.8252 1.98047 64.4002 2.34047 65.6002 4.75547L68.2402 10.0355C68.4502 10.4405 69.0952 10.9205 69.5452 10.9955L74.3302 11.7905C76.9252 12.2255 77.7352 13.6055 77.9752 14.3855C78.2152 15.1655 78.3652 16.7555 76.5202 18.6155L72.8002 22.3505C72.4402 22.7105 72.2152 23.5205 72.3202 24.0155L73.3852 28.6205C74.0752 31.6205 73.0102 32.9255 72.3202 33.4355C71.9452 33.7055 71.3452 34.0055 70.4902 34.0055Z" fill="#218354"/>
<path d="M114.49 34.0055C113.695 34.0055 112.675 33.7505 111.4 33.0005L106.915 30.3455C106.45 30.0755 105.55 30.0755 105.1 30.3455L100.6 33.0005C97.9452 34.5755 96.3852 33.9455 95.6802 33.4355C94.9902 32.9255 93.9102 31.6205 94.6152 28.6205L95.6802 24.0155C95.8002 23.5355 95.5602 22.7105 95.2002 22.3505L91.4802 18.6305C89.6202 16.7705 89.7702 15.1805 90.0252 14.4005C90.2802 13.6205 91.0902 12.2405 93.6702 11.8055L98.4552 11.0105C98.9052 10.9355 99.5502 10.4555 99.7452 10.0505L102.4 4.75547C103.6 2.34047 105.175 1.98047 106 1.98047C106.825 1.98047 108.4 2.34047 109.6 4.75547L112.24 10.0355C112.45 10.4405 113.095 10.9205 113.545 10.9955L118.33 11.7905C120.925 12.2255 121.735 13.6055 121.975 14.3855C122.215 15.1655 122.365 16.7555 120.52 18.6155L116.8 22.3505C116.44 22.7105 116.215 23.5205 116.32 24.0155L117.385 28.6205C118.075 31.6205 117.01 32.9255 116.32 33.4355C115.945 33.7055 115.345 34.0055 114.49 34.0055Z" fill="white"/>
<path d="M114.49 34.0055C113.695 34.0055 112.675 33.7505 111.4 33.0005L106.915 30.3455C106.45 30.0755 105.55 30.0755 105.1 30.3455L100.6 33.0005C97.9452 34.5755 96.3852 33.9455 95.6802 33.4355C94.9902 32.9255 93.9102 31.6205 94.6152 28.6205L95.6802 24.0155C95.8002 23.5355 95.5602 22.7105 95.2002 22.3505L91.4802 18.6305C89.6202 16.7705 89.7702 15.1805 90.0252 14.4005C90.2802 13.6205 91.0902 12.2405 93.6702 11.8055L98.4552 11.0105C98.9052 10.9355 99.5502 10.4555 99.7452 10.0505L102.4 4.75547C103.6 2.34047 105.175 1.98047 106 1.98047C106.825 1.98047 108.4 2.34047 109.6 4.75547L112.24 10.0355C112.45 10.4405 113.095 10.9205 113.545 10.9955L118.33 11.7905C120.925 12.2255 121.735 13.6055 121.975 14.3855C122.215 15.1655 122.365 16.7555 120.52 18.6155L116.8 22.3505C116.44 22.7105 116.215 23.5205 116.32 24.0155L117.385 28.6205C118.075 31.6205 117.01 32.9255 116.32 33.4355C115.945 33.7055 115.345 34.0055 114.49 34.0055Z" fill="#218354"/>
<path d="M158.49 34.0055C157.695 34.0055 156.675 33.7505 155.4 33.0005L150.915 30.3455C150.45 30.0755 149.55 30.0755 149.1 30.3455L144.6 33.0005C141.945 34.5755 140.385 33.9455 139.68 33.4355C138.99 32.9255 137.91 31.6205 138.615 28.6205L139.68 24.0155C139.8 23.5355 139.56 22.7105 139.2 22.3505L135.48 18.6305C133.62 16.7705 133.77 15.1805 134.025 14.4005C134.28 13.6205 135.09 12.2405 137.67 11.8055L142.455 11.0105C142.905 10.9355 143.55 10.4555 143.745 10.0505L146.4 4.75547C147.6 2.34047 149.175 1.98047 150 1.98047C150.825 1.98047 152.4 2.34047 153.6 4.75547L156.24 10.0355C156.45 10.4405 157.095 10.9205 157.545 10.9955L162.33 11.7905C164.925 12.2255 165.735 13.6055 165.975 14.3855C166.215 15.1655 166.365 16.7555 164.52 18.6155L160.8 22.3505C160.44 22.7105 160.215 23.5205 160.32 24.0155L161.385 28.6205C162.075 31.6205 161.01 32.9255 160.32 33.4355C159.945 33.7055 159.345 34.0055 158.49 34.0055Z" fill="white"/>
<path d="M158.49 34.0055C157.695 34.0055 156.675 33.7505 155.4 33.0005L150.915 30.3455C150.45 30.0755 149.55 30.0755 149.1 30.3455L144.6 33.0005C141.945 34.5755 140.385 33.9455 139.68 33.4355C138.99 32.9255 137.91 31.6205 138.615 28.6205L139.68 24.0155C139.8 23.5355 139.56 22.7105 139.2 22.3505L135.48 18.6305C133.62 16.7705 133.77 15.1805 134.025 14.4005C134.28 13.6205 135.09 12.2405 137.67 11.8055L142.455 11.0105C142.905 10.9355 143.55 10.4555 143.745 10.0505L146.4 4.75547C147.6 2.34047 149.175 1.98047 150 1.98047C150.825 1.98047 152.4 2.34047 153.6 4.75547L156.24 10.0355C156.45 10.4405 157.095 10.9205 157.545 10.9955L162.33 11.7905C164.925 12.2255 165.735 13.6055 165.975 14.3855C166.215 15.1655 166.365 16.7555 164.52 18.6155L160.8 22.3505C160.44 22.7105 160.215 23.5205 160.32 24.0155L161.385 28.6205C162.075 31.6205 161.01 32.9255 160.32 33.4355C159.945 33.7055 159.345 34.0055 158.49 34.0055Z" fill="#218354"/>
<path d="M202.49 34.0055C201.695 34.0055 200.675 33.7505 199.4 33.0005L194.915 30.3455C194.45 30.0755 193.55 30.0755 193.1 30.3455L188.6 33.0005C185.945 34.5755 184.385 33.9455 183.68 33.4355C182.99 32.9255 181.91 31.6205 182.615 28.6205L183.68 24.0155C183.8 23.5355 183.56 22.7105 183.2 22.3505L179.48 18.6305C177.62 16.7705 177.77 15.1805 178.025 14.4005C178.28 13.6205 179.09 12.2405 181.67 11.8055L186.455 11.0105C186.905 10.9355 187.55 10.4555 187.745 10.0505L190.4 4.75547C191.6 2.34047 193.175 1.98047 194 1.98047C194.825 1.98047 196.4 2.34047 197.6 4.75547L200.24 10.0355C200.45 10.4405 201.095 10.9205 201.545 10.9955L206.33 11.7905C208.925 12.2255 209.735 13.6055 209.975 14.3855C210.215 15.1655 210.365 16.7555 208.52 18.6155L204.8 22.3505C204.44 22.7105 204.215 23.5205 204.32 24.0155L205.385 28.6205C206.075 31.6205 205.01 32.9255 204.32 33.4355C203.945 33.7055 203.345 34.0055 202.49 34.0055Z" fill="white"/>
<path d="M202.49 34.0055C201.695 34.0055 200.675 33.7505 199.4 33.0005L194.915 30.3455C194.45 30.0755 193.55 30.0755 193.1 30.3455L188.6 33.0005C185.945 34.5755 184.385 33.9455 183.68 33.4355C182.99 32.9255 181.91 31.6205 182.615 28.6205L183.68 24.0155C183.8 23.5355 183.56 22.7105 183.2 22.3505L179.48 18.6305C177.62 16.7705 177.77 15.1805 178.025 14.4005C178.28 13.6205 179.09 12.2405 181.67 11.8055L186.455 11.0105C186.905 10.9355 187.55 10.4555 187.745 10.0505L190.4 4.75547C191.6 2.34047 193.175 1.98047 194 1.98047C194.825 1.98047 196.4 2.34047 197.6 4.75547L200.24 10.0355C200.45 10.4405 201.095 10.9205 201.545 10.9955L206.33 11.7905C208.925 12.2255 209.735 13.6055 209.975 14.3855C210.215 15.1655 210.365 16.7555 208.52 18.6155L204.8 22.3505C204.44 22.7105 204.215 23.5205 204.32 24.0155L205.385 28.6205C206.075 31.6205 205.01 32.9255 204.32 33.4355C203.945 33.7055 203.345 34.0055 202.49 34.0055Z" fill="#218354"/>
</svg>
